<?xml version="1.0"?><svg xmlns="http://www.w3.org/2000/svg" viewBox="0 0 512 512"><g id="Outline"><path d="M496,252V40a24.027,24.027,0,0,0-24-24H382.63a23.858,23.858,0,0,0-16.978,7.033l-22.619,22.62A7.951,7.951,0,0,1,337.37,48H184a24.027,24.027,0,0,0-24,24V88H136a8,8,0,0,0-8,8v48H87.63a23.992,23.992,0,0,0-22.277,32.911l4.023,10.06,14.855-5.942-4.024-10.064A7.992,7.992,0,0,1,87.63,160H367.75A15.978,15.978,0,0,1,382.6,170.061L452.186,344H288v16H472a24.028,24.028,0,0,0,24-24V271H480v65a8.011,8.011,0,0,1-8.006,8,3.811,3.811,0,0,1-3.536-2.4l-6.507-16.265A7.959,7.959,0,0,0,464,320V96a8,8,0,0,0-8-8H176V72a8.009,8.009,0,0,1,8-8H337.37a23.858,23.858,0,0,0,16.978-7.033l22.619-22.62A7.951,7.951,0,0,1,382.63,32H472a8.009,8.009,0,0,1,8,8V252Zm-48,38.459-24-59.993V128H408v62.471l-10.542-26.352A32.049,32.049,0,0,0,384,148.446V128H368v16c-.083,0-.167,0-.25,0H344V128H328v16H304V128H288v16H264V128H248v16H224V128H208v16H184V128H168v16H144V104H448ZM448,64V48h16V64Zm-32,0V48h16V64Zm-32,0V48h16V64ZM256,456h16v16a24.027,24.027,0,0,1-24,24H40a24.027,24.027,0,0,1-24-24V376H32v96a8.009,8.009,0,0,0,8,8H248a8.009,8.009,0,0,0,8-8Zm16-112v96H256V344a8.009,8.009,0,0,0-8-8H40a8.009,8.009,0,0,0-8,8v16H16V344a24.027,24.027,0,0,1,24-24H184V272a40,40,0,0,0-80,0v24a8,8,0,0,1-8,8H56a8,8,0,0,1-8-8V272a95.924,95.924,0,0,1,13.356-48.875l13.766,8.157A79.9,79.9,0,0,0,64,272v16H88V272a56,56,0,0,1,112,0v48h24V272A80,80,0,0,0,82.282,221.094L69.946,210.906A96,96,0,0,1,240,272v48h8A24.027,24.027,0,0,1,272,344ZM152,440V422.624a24,24,0,1,0-16,0V440Zm-8-48a8,8,0,1,1-8,8A8.009,8.009,0,0,1,144,392Z"/></g></svg>