<svg xmlns="http://www.w3.org/2000/svg" viewBox="0 0 437.663 131.37"><defs><style>.a{fill:#096000;}.b{fill:#a3a3a3;}</style></defs><g transform="translate(-80.734 -436.09)"><path class="a" d="M86.18,525.82a62.938,62.938,0,0,0,45.98,39.66c.23.05.46.09.68.14a.788.788,0,0,0,.73-.57c.27-.92-.38-1.11-.38-1.11-18.98-4.6-33.53-17.1-40.78-36.52a62.677,62.677,0,0,1-3.62-15.22,44.669,44.669,0,0,1-6.59-10.5A63.188,63.188,0,0,0,86.18,525.82Z"/><path class="a" d="M82.6,496.45a44.779,44.779,0,0,0,5.88,8.49,57.053,57.053,0,0,1,2.25-14.96,45,45,0,0,1-4.79-7.7A62.873,62.873,0,0,0,82.6,496.45Z"/><path class="a" d="M92.03,469.86a44.434,44.434,0,0,0,4.88,6.3,57.212,57.212,0,0,1,6.19-8.26,35.4,35.4,0,0,1-4.45-6.65A63.778,63.778,0,0,0,92.03,469.86Z"/><path class="a" d="M192.67,463.97a62.234,62.234,0,0,0-88.25-8.25,34.537,34.537,0,0,0,5.01,6.15,64.053,64.053,0,0,1,18.32-10.47c23.69-8.85,46.91-3.43,63.35,13.2,0,0,.81,1.04,1.59.65C193.23,464.99,192.67,463.97,192.67,463.97Z"/><path class="a" d="M510.71,485.33H457.84c-3.35-.09-11.91,2.34-14.27,11.26l-6.9,25.68-1.75,6.53c-1.03,3.67-.1,6.48,1.75,8.32a9.631,9.631,0,0,0,6.74,2.61l32.92.1,18.47.06c4.68,0,12.76-3.99,14.33-11.25l8.7-32.14C519.59,489.99,517.26,485.33,510.71,485.33Zm-17.5,13.01-7.61,28.31a7.571,7.571,0,0,1-7.41,5.8l-1.86-.01-12.5-.04c-3.66,0-5.22-2.42-4.4-5.45l7.52-28.32a7.648,7.648,0,0,1,7.44-5.82h1.94l12.54-.02C490.79,492.72,494.35,494.38,493.21,498.34Z"/><path class="a" d="M355.67,496.49c.97-3.58.34-6.6-1.52-8.59a8.985,8.985,0,0,0-6.77-2.56h-50.3l-.02.07-24.91-.05-16.5-.02c-4.67,0-12.76,3.99-14.32,11.25l-8.64,31.88-.07.27a11.146,11.146,0,0,0,.07,7.13c1.06,2.51,3.47,4.03,7.2,4.03h34.58l-1.65,6.04h24.19l1.66-6.09,17.49.03,16.47.03c4.68,0,12.77-3.99,14.33-11.25l7.18-26.51ZM276.53,532.4l-4.37.01H261.52c-1.92.06-5.48-1.6-4.33-5.55l7.6-28.33a7.566,7.566,0,0,1,7.37-5.79h.03l15.17.01Zm54.89-34.06-7.62,28.31a7.551,7.551,0,0,1-7.4,5.8h-.23l-15.47-.02,10.83-39.64h4.64l10.92-.01C329.01,492.72,332.56,494.38,331.42,498.34Z"/><path class="a" d="M232.89,496.93a9.659,9.659,0,0,0-.19-6.27c-1.25-3.02-4.32-4.89-8.46-4.89-21.53,0-39.46-.1-61.14-.1l-2.05,7.45h43.43c1.92-.06,5.49,1.7,4.33,5.66l-2.8,10.41H166.77l-2.03,7.45h39.27l-2.81,10.44a7.665,7.665,0,0,1-5.14,5.49,12.374,12.374,0,0,1-2.3.21H150.24l-2.09,7.45,61.71.07c4.66,0,12.75-3.99,14.32-11.25l8.51-31.43Z"/><path class="a" d="M436.68,486.66l2.17-1.25H422.88L385.4,506.73c1.86-6.81,3.3-12.16,3.48-12.88,1.01-4.4-.13-8.67-9.56-8.67-1.6,0-12.27-.02-12.27-.02l-12.9,47.6-1.94,7.16h24.14s2.93-10.72,6.04-22.12l8.88-4.91,15.35,27.07h25.76l-21.69-38.27Z"/><path class="a" d="M294.91,556.7l-.3,1.65h-3.57l-1.69,8.9h-1.99l1.99-10.55h5.56Z"/><path class="a" d="M302.71,563.53h-1.16l-.71,3.72h-2.02l2.05-10.55h3.03a6.209,6.209,0,0,1,1.33.12,2.328,2.328,0,0,1,2.04,2.43A4.2,4.2,0,0,1,302.71,563.53Zm1.6-5.15a2.5,2.5,0,0,0-.8-.11h-.94l-.71,3.69h1.15a2.164,2.164,0,0,0,2.09-2.4A1.116,1.116,0,0,0,304.31,558.38Z"/><path class="a" d="M321.67,556.7c-1.28,2.49-2.66,4.94-4.28,7.5-1.59,2.57-2.3,3.23-4.05,3.23a6.052,6.052,0,0,1-1.28-.15l.29-1.56h1c.79,0,1.12-.23,1.68-1.13a66.917,66.917,0,0,1-2.09-7.89h2.13a48.381,48.381,0,0,0,1.25,5.47l.08.44h.02l.23-.44c.98-1.68,2.01-3.63,2.9-5.47h2.12Z"/><path class="a" d="M331.47,567.25l1.68-8.81h-4.1l-1.66,8.81H325.4l1.99-10.55h8.07l-2.01,10.55Z"/><path class="a" d="M346.4,567.25l1.68-8.81h-4.09l-1.66,8.81h-1.99l1.99-10.55h8.07l-2.01,10.55Z"/><path class="a" d="M361.8,567.25c-.06-.77-.15-1.65-.24-2.46h-3.99c-.42.83-.82,1.68-1.18,2.46h-2.02c1.77-3.63,3.6-7.06,5.64-10.55h2.33c.71,3.54,1.27,7.12,1.62,10.55Zm-.37-4.02c-.15-1.03-.32-2.1-.48-3.16q-.09-.7-.18-1.44h-.02c-.27.5-.53,1.01-.79,1.48-.56,1.03-1.12,2.09-1.66,3.11h3.13Z"/><path class="a" d="M384.19,567.25l-1.99-4.96-.89.83-.79,4.13h-2l2.03-10.55h1.98l-.79,4.14c1.42-1.36,2.83-2.77,4.25-4.14h2.52l-4.68,4.26,2.64,6.29Z"/><path class="a" d="M397.03,567.46c-2.81,0-4.25-1.31-4.25-3.87,0-3.02,1.59-7.1,6.12-7.1,2.77,0,4.25,1.38,4.25,3.87C403.15,563.36,401.67,567.46,397.03,567.46Zm1.6-9.29c-2.74,0-3.7,3.1-3.7,5.26a2.073,2.073,0,0,0,2.37,2.36c2.43,0,3.7-2.6,3.7-5.21C401,559.07,400.39,558.17,398.63,558.17Z"/><path class="a" d="M418.11,567.25c.53-2.89.98-5.82,1.19-8.42h-.02L415,567.25h-1.89l-.95-8.42h-.03c-.74,2.57-1.48,5.55-2.06,8.42h-1.84a107.421,107.421,0,0,1,2.75-10.55h2.86l.86,7.56h.02l3.82-7.56h2.95c-.29,3.49-.76,7.1-1.39,10.55Z"/><path class="a" d="M432.91,567.25l1.68-8.81h-4.1l-1.66,8.81h-1.99l1.99-10.55h8.07l-2.01,10.55Z"/><path class="a" d="M448.31,567.25c-.06-.77-.15-1.65-.24-2.46h-3.99c-.42.83-.82,1.68-1.18,2.46h-2.02c1.77-3.63,3.6-7.06,5.64-10.55h2.33c.71,3.54,1.27,7.12,1.62,10.55Zm-.36-4.02c-.15-1.03-.32-2.1-.48-3.16q-.09-.7-.18-1.44h-.02c-.27.5-.53,1.01-.79,1.48-.56,1.03-1.12,2.09-1.66,3.11h3.13Z"/><path class="a" d="M464.46,567.25h-1.99l.88-4.59h-4.03l-.88,4.59h-2.02l2.05-10.55h2.03l-.83,4.22h4.03l.83-4.22h1.99Z"/><path class="a" d="M477.7,567.25l1.07-5.67.32-1.51-1.21,1.48-4.81,5.7h-1.74l1.99-10.55h1.96l-1.09,5.67-.32,1.51,1.21-1.48,4.82-5.7h1.72l-1.99,10.55Z"/><path class="a" d="M492.87,567.25l1.07-5.67.32-1.51-1.21,1.48-4.81,5.7H486.5l1.99-10.55h1.96l-1.09,5.67-.32,1.51,1.21-1.48,4.82-5.7h1.72l-1.99,10.55Zm3.23-13.65a3.018,3.018,0,0,1-3.28,2.54c-1.6,0-2.45-.76-2.45-1.9a1.949,1.949,0,0,1,.08-.63h1.63c-.17.82.09,1.28.92,1.28a1.372,1.372,0,0,0,1.41-1.28h1.69Z"/><path class="a" d="M85.53,470.35c.57,19.09,22.6,37.73,50.11,48.62.89.35.27.12,1.17.46l13.36-15.57c-33.16-9.02-63.24-32.07-59.25-49.77C88.4,459.22,85.32,463.47,85.53,470.35Z"/><path class="b" d="M106.59,436.09a20.3,20.3,0,0,0-5.17,4.56A15.562,15.562,0,0,0,98.4,453.7c2.54,12.78,18.75,27.11,42.4,36.74l8.29-9.02c-30.7-9.45-55.63-32.27-42.5-45.33Z"/><path class="b" d="M121.26,532.75c1.74-2.07,5.17-5.96,7.34-8.53-23.05-7.17-51.28-32.47-46.18-45.28-7.72,19.43,12.11,41.12,38.24,53.52Z"/></g></svg>